<?xml version="1.0" encoding="UTF-8"?>
<svg xmlns="http://www.w3.org/2000/svg" viewBox="0 0 269.55760076208276 94" width="270" height="94" fill="none" preserveAspectRatio="xMidYMid meet" role="img" aria-label="Logo"><defs id="SvgjsDefs2246"></defs><g id="SvgjsG2247" featurekey="sloganFeature-0" transform="matrix(1.1795542991553607,0,0,1.1795542991553607,31.929226809545316,70.07863800319362)" fill="#d72323"><path d="M7.72 19.82 l-0.58 -2.24 l-2.98 0 l-0.56 2.24 l0.18 0.18 l-3.72 0 l0.22 -0.18 l3.64 -14.38 l-0.18 -0.18 l3.8 0 l-0.2 0.18 l3.7 14.38 l0.18 0.18 l-3.7 0 z M5.66 9.88 l-0.04 0 l-0.78 4.68 l1.6 0 z M19.3 19.82 l0.18 0.18 l-7.3 0 l0.18 -0.16 l0 -14.6 l3.22 0 l0 11.54 l3.72 0 l0 3.04 z M27.94 19.82 l0.18 0.18 l-7.3 0 l0.18 -0.16 l0 -14.6 l3.22 0 l0 11.54 l3.72 0 l0 3.04 z M37.62 11 c1.86 0.64 4.04 1.84 3.94 4.54 c-0.08 2.06 -1.04 3.16 -1.8 3.7 c-1.94 1.38 -4.76 0.86 -6.6 -0.22 l0.98 -3.14 c1.3 0.56 3.78 1.64 4.18 -0.2 c0.4 -1.76 -5.28 -1.58 -5.12 -6.24 c0.14 -4.02 4.24 -5.14 7.74 -3.6 l-1.04 2.88 c-0.92 -0.4 -3.26 -0.86 -3.46 0.78 c-0.1 0.72 0.52 1.2 1.18 1.5 z M51.84 5.42 l-0.02 0 l0 14.4 l0.18 0.18 l-3.58 0 l0.18 -0.18 l0 -6.08 l-2.3 0 l0 6.08 l0.18 0.18 l-3.58 0 l0.18 -0.18 l0 -14.42 l-0.18 -0.16 l3.58 0 l-0.18 0.18 l0 5.1 l2.3 0 l0 -5.12 l-0.16 -0.16 l3.58 0 z M58.44 5.02 c3.12 0 4.52 1.94 4.52 3.96 l0 7.22 c0 2.02 -1.46 3.98 -4.52 3.98 c-3 0 -4.6 -1.96 -4.6 -3.98 l0 -7.22 c0 -2.02 1.38 -3.96 4.6 -3.96 z M59.74 16.2 l0 -7.22 c0 -1.2 -2.68 -1.16 -2.68 0 l0 7.22 c0 1.34 2.68 1.32 2.68 0 z M73.32 9.08 l0 3.08 c0 2.48 -1.72 3.78 -3.84 3.78 l-1.28 0 l0 3.88 l0.18 0.18 l-3.58 0 l0.18 -0.18 l0 0 l0 -14.4 l-0.18 -0.18 l4.68 0 c2.12 0 3.84 1.06 3.84 3.84 z M70.1 12.3 l0 -3.44 c0 -0.34 -0.28 -0.62 -0.62 -0.62 l-1.28 0 l0 4.7 l1.28 0 c0.34 0 0.62 -0.28 0.62 -0.64 z M79.04 11 c1.86 0.64 4.04 1.84 3.94 4.54 c-0.08 2.06 -1.04 3.16 -1.8 3.7 c-1.94 1.38 -4.76 0.86 -6.6 -0.22 l0.98 -3.14 c1.3 0.56 3.78 1.64 4.18 -0.2 c0.4 -1.76 -5.28 -1.58 -5.12 -6.24 c0.14 -4.02 4.24 -5.14 7.74 -3.6 l-1.04 2.88 c-0.92 -0.4 -3.26 -0.86 -3.46 0.78 c-0.1 0.72 0.52 1.2 1.18 1.5 z M91.8 5.42 l0 14.4 l0.2 0.18 l-3.66 0 l0.2 -0.18 l0 -14.4 l-0.2 -0.18 l3.66 0 z M102.66 20.28 l-5.76 -6.62 l0 6.14 l0.18 0.18 l-3.42 0 l0.18 -0.18 l0 -14.7 l0.2 0 l5.76 7.44 l0 -7.12 l-0.2 -0.18 l3.44 0 l-0.2 0.18 l0 14.86 l-0.18 0 z M113.48 5.02 c3.12 0 4.52 1.94 4.52 3.96 l0 7.22 c0 2.02 -1.46 3.98 -4.52 3.98 c-3 0 -4.6 -1.96 -4.6 -3.98 l0 -7.22 c0 -2.02 1.38 -3.96 4.6 -3.96 z M114.78 16.2 l0 -7.22 c0 -1.2 -2.68 -1.16 -2.68 0 l0 7.22 c0 1.34 2.68 1.32 2.68 0 z M128.84 20.28 l-5.76 -6.62 l0 6.14 l0.18 0.18 l-3.42 0 l0.18 -0.18 l0 -14.7 l0.2 0 l5.76 7.44 l0 -7.12 l-0.2 -0.18 l3.44 0 l-0.2 0.18 l0 14.86 l-0.18 0 z M131.04 5.24 l6.62 0 l0.16 -0.18 l0 3.58 l-0.18 -0.18 l-3.38 0 l0 2.54 l3.1 0 l0.18 -0.18 l0 3.6 l-0.18 -0.2 l-3.1 0 l0 2.56 l3.68 0 l0.18 -0.18 l0 3.58 l-0.18 -0.18 l-7.08 0 l0.18 -0.18 l0 -14.58 z M152.6 5.42 l-0.02 0 l0 14.4 l0.18 0.18 l-3.58 0 l0.18 -0.18 l0 -6.08 l-2.3 0 l0 6.08 l0.18 0.18 l-3.58 0 l0.18 -0.18 l0 -14.42 l-0.18 -0.16 l3.58 0 l-0.18 0.18 l0 5.1 l2.3 0 l0 -5.12 l-0.16 -0.16 l3.58 0 z M163.98 5.24 l-0.2 0.2 l0 0 l0 10.6 c0 2.68 -2.08 4.04 -4.54 4.04 c-2.3 0 -4.6 -1.36 -4.6 -4.04 l0 -10.62 l-0.02 0.02 l-0.18 -0.2 l3.72 0 l-0.2 0.2 l0 -0.02 l0 10.62 c0 1.24 2.5 1.26 2.5 0 l0 -10.62 l0 0.02 l-0.2 -0.2 l3.72 0 z M170.46 5.24 c2.3 0 3.84 1.52 3.84 3.6 c0 0.88 -0.32 2.12 -1.52 2.88 c0.84 0.3 1.5 0.96 1.5 2.42 l0 2.02 c0 2.6 -1.24 3.84 -3.76 3.84 l-4.92 0 l0.18 -0.18 l0 -14.4 l-0.18 -0.18 l4.86 0 z M169 8.26 l0 2.12 l1.5 0 c0.7 -0.2 0.98 -2.12 -0.12 -2.12 l-1.38 0 z M170.44 16.94 c0.34 0 0.62 -0.28 0.62 -0.62 l0 -2.04 c-0.02 -0.34 -0.3 -0.6 -0.62 -0.6 l-1.44 0 l0 3.26 l1.44 0 z"></path></g><g id="SvgjsG2248" featurekey="nameLeftFeature-0" transform="matrix(1,0,0,1,0,48)" fill="#111111"><path d=""></path></g><g id="SvgjsG2249" featurekey="inlineSymbolFeature-0" transform="matrix(0.5426590591992286,0,0,0.5426590591992286,-3.139885887988429,20.867048075078582)" fill="#111111"><title></title><path d="M41.83,25.5a8.67,8.67,0,1,1,8.67,8.67A8.67,8.67,0,0,1,41.83,25.5ZM15,47.51V83.17H31.75V53.42c0-.58,0-1.16.09-1.73A34.76,34.76,0,0,0,15.25,47.5Zm69.75,0a34.62,34.62,0,0,0-15.64,3.7,20.19,20.19,0,0,1,.14,2.22V83.17H85V47.51ZM50.5,34.67a18.74,18.74,0,0,0-18.66,17A34.93,34.93,0,0,1,50,79,34.93,34.93,0,0,1,69.11,51.2,18.75,18.75,0,0,0,50.5,34.67Z"></path></g><g id="SvgjsG2250" featurekey="nameRightFeature-0" transform="matrix(2.3778070795009727,0,0,2.3778070795009727,41.66847267423941,18.06340964008496)" fill="#111111"><path d="M9.6 5.04 l0 1.44 c0 0.22666 -0.05334 0.41332 -0.16 0.55998 s-0.21332 0.26 -0.31998 0.34 c-0.05334 0.05334 -0.09668 0.10668 -0.13002 0.16002 s-0.05668 0.14 -0.07002 0.26 l0 9.34 c0 0.50666 -0.10666 0.95 -0.32 1.33 s-0.49334 0.69666 -0.84 0.95 s-0.74666 0.44 -1.2 0.56 s-0.92668 0.18 -1.42002 0.18 s-0.97334 -0.06 -1.44 -0.18 s-0.88332 -0.30666 -1.24998 -0.56 s-0.66 -0.57 -0.88 -0.95 s-0.33 -0.82334 -0.33 -1.33 l0 -9.32 c0 -0.12 -0.02 -0.21 -0.06 -0.27 s-0.09334 -0.11 -0.16 -0.15 c-0.10666 -0.06666 -0.21 -0.17666 -0.31 -0.33 s-0.15 -0.35668 -0.15 -0.61002 l0 -1.42 l4.04 0 l0 1.32 c0 0.22666 -0.05334 0.43332 -0.16 0.61998 s-0.21332 0.32 -0.31998 0.4 c-0.06666 0.05334 -0.11666 0.10668 -0.15 0.16002 s-0.05 0.14 -0.05 0.26 l0 8.64 c0 0.52 0.11 0.88334 0.33 1.09 s0.51666 0.31 0.89 0.31 s0.67 -0.10334 0.89 -0.31 s0.33 -0.57 0.33 -1.09 l0 -8.62 c0 -0.12 -0.03 -0.23 -0.09 -0.33 s-0.12334 -0.17666 -0.19 -0.23 c-0.10666 -0.06666 -0.2 -0.17332 -0.28 -0.31998 s-0.12 -0.34666 -0.12 -0.6 l0 -1.3 l3.92 0 z M18.62 16.64 l-0.000078 2.58 c0 0.26666 -0.07334 0.46332 -0.22 0.58998 s-0.27332 0.19 -0.37998 0.19 l-0.28 0 l-7.02 0 l0 -1.28 c0 -0.29334 0.03666 -0.51668 0.11 -0.67002 s0.17668 -0.26334 0.31002 -0.33 c0.06666 -0.02666 0.12666 -0.07332 0.18 -0.13998 s0.08 -0.14666 0.08 -0.24 l0 -9.58 l0 -0.12 c0 -0.13334 -0.01666 -0.22668 -0.05 -0.28002 s-0.08334 -0.10668 -0.15 -0.16002 c-0.10666 -0.08 -0.21332 -0.19334 -0.31998 -0.34 s-0.16 -0.33332 -0.16 -0.55998 l0 -1.26 l4.12 0 l0 1.26 c0 0.22666 -0.05334 0.41332 -0.16 0.55998 s-0.21332 0.26 -0.31998 0.34 c-0.06666 0.05334 -0.11666 0.10668 -0.15 0.16002 s-0.05 0.14668 -0.05 0.28002 l0 9.72 c0 0.22666 0.08666 0.34 0.26 0.34 l1.48 0 c0.09334 0 0.18334 -0.03334 0.27 -0.1 s0.15 -0.13332 0.19 -0.19998 c0.06666 -0.13334 0.18 -0.29334 0.34 -0.48 s0.38666 -0.28 0.68 -0.28 l1.24 0 z M26.2 5.06 c0.28 0 0.4767 0.046582 0.59004 0.139922 s0.17 0.31334 0.17 0.66 l0 1.4 l0 1 l-1.16 0 c-0.34666 0 -0.60666 -0.16 -0.78 -0.48 c-0.06666 -0.14666 -0.13 -0.24666 -0.19 -0.3 s-0.20334 -0.08 -0.43 -0.08 l-0.26 0 c-0.17334 0 -0.26 0.11334 -0.26 0.34 l-0.04 9.68 c0 0.13334 0.02666 0.22668 0.08 0.28002 s0.11334 0.10668 0.18 0.16002 c0.09334 0.06666 0.18668 0.17 0.28002 0.31 s0.14 0.33 0.14 0.57 l0 1.28 l-4.08 0 l0 -1.28 c0 -0.22666 0.05 -0.41332 0.15 -0.55998 s0.20334 -0.25332 0.31 -0.31998 c0.06666 -0.05334 0.12 -0.11334 0.16 -0.18 s0.06 -0.15332 0.06 -0.25998 l0 -9.74 c0 -0.09334 -0.04 -0.16334 -0.12 -0.21 s-0.15334 -0.07 -0.22 -0.07 l-0.2 0 c-0.08 0 -0.17666 0.02 -0.29 0.06 s-0.21 0.14666 -0.29 0.32 c-0.09334 0.18666 -0.19668 0.31332 -0.31002 0.37998 s-0.31668 0.1 -0.61002 0.1 l-1.04 0 l0 -1.1 l0 -1.3 c0 -0.30666 0.07334 -0.51666 0.22 -0.63 s0.33332 -0.17 0.55998 -0.17 l7.38 0 l0 0 z M31.4 17.4 c0 0.14666 0.02 0.24666 0.06 0.3 s0.08666 0.1 0.14 0.14 c0.10666 0.08 0.21332 0.19334 0.31998 0.34 s0.16 0.33332 0.16 0.55998 l0 1.26 l-4.1 0 l0 -1.26 c0 -0.22666 0.05334 -0.41332 0.16 -0.55998 s0.21332 -0.26 0.31998 -0.34 c0.06666 -0.04 0.11666 -0.08666 0.15 -0.14 s0.05 -0.15334 0.05 -0.3 l0 -9.74 l0 -0.02 c0 -0.13334 -0.01666 -0.22668 -0.05 -0.28002 s-0.08334 -0.10668 -0.15 -0.16002 c-0.10666 -0.08 -0.21332 -0.19334 -0.31998 -0.34 s-0.16 -0.33332 -0.16 -0.55998 l0 -1.26 l4.1 0 l0 1.26 c0 0.22666 -0.05334 0.41332 -0.16 0.55998 s-0.21332 0.26 -0.31998 0.34 c-0.05334 0.05334 -0.1 0.10668 -0.14 0.16002 s-0.06 0.14668 -0.06 0.28002 l0 0.02 l0 9.74 l0 0 z M36.98 14.94 c0 0.04 -0.01334 0.06 -0.04 0.06 l-3.7 0 c-0.02666 0 -0.04 -0.02 -0.04 -0.06 l0 -1.9 c0 -0.04 0.01334 -0.06 0.04 -0.06 l3.7 0 c0.02666 0 0.04 0.02 0.04 0.06 l0 1.9 z M44.16 5.06 c0.28 0 0.4767 0.046582 0.59004 0.139922 s0.17 0.31334 0.17 0.66 l0 1.4 l0 1 l-1.16 0 c-0.34666 0 -0.60666 -0.16 -0.78 -0.48 c-0.06666 -0.14666 -0.13 -0.24666 -0.19 -0.3 s-0.20334 -0.08 -0.43 -0.08 l-0.26 0 c-0.17334 0 -0.26 0.11334 -0.26 0.34 l-0.04 9.68 c0 0.13334 0.02666 0.22668 0.08 0.28002 s0.11334 0.10668 0.18 0.16002 c0.09334 0.06666 0.18668 0.17 0.28002 0.31 s0.14 0.33 0.14 0.57 l0 1.28 l-4.08 0 l0 -1.28 c0 -0.22666 0.05 -0.41332 0.15 -0.55998 s0.20334 -0.25332 0.31 -0.31998 c0.06666 -0.05334 0.12 -0.11334 0.16 -0.18 s0.06 -0.15332 0.06 -0.25998 l0 -9.74 c0 -0.09334 -0.04 -0.16334 -0.12 -0.21 s-0.15334 -0.07 -0.22 -0.07 l-0.2 0 c-0.08 0 -0.17666 0.02 -0.29 0.06 s-0.21 0.14666 -0.29 0.32 c-0.09334 0.18666 -0.19668 0.31332 -0.31002 0.37998 s-0.31668 0.1 -0.61002 0.1 l-1.04 0 l0 -1.1 l0 -1.3 c0 -0.30666 0.07334 -0.51666 0.22 -0.63 s0.33332 -0.17 0.55998 -0.17 l7.38 0 l0 0 z M49.8 7.36 c-0.06666 0 -0.12998 0.030059 -0.18998 0.090059 s-0.09 0.12334 -0.09 0.19 l0 3.32 c0 0.09334 0.03 0.16334 0.09 0.21 s0.13 0.07 0.21 0.07 l2.52 0 c0.06666 0 0.13666 0.02334 0.21 0.07 s0.11 0.12332 0.11 0.22998 l0 1.6 c0 0.18666 -0.1 0.28 -0.3 0.28 l-2.54 0 c-0.2 0 -0.3 0.08666 -0.3 0.26 l0 3.74 c0 0.08 0.03334 0.14666 0.1 0.2 s0.14 0.08 0.22 0.08 l1.6 0 c0.12 0 0.21334 -0.06666 0.28 -0.2 c0.02666 -0.06666 0.06 -0.14666 0.1 -0.24 s0.09666 -0.18 0.17 -0.26 s0.16334 -0.15 0.27 -0.21 s0.23332 -0.09 0.37998 -0.09 l1.24 0 l0 2.8 c0 0.14666 -0.07334 0.26666 -0.22 0.36 s-0.29332 0.14 -0.43998 0.14 l-1.3 0 l-4.58 0 l-1.2 0 l0 -1.2 c0 -0.29334 0.04 -0.51668 0.12 -0.67002 s0.18666 -0.26334 0.32 -0.33 c0.16 -0.09334 0.24 -0.23334 0.24 -0.42 l0 -9.72 c0 -0.21334 -0.08666 -0.36668 -0.26 -0.46002 c-0.13334 -0.06666 -0.23668 -0.17 -0.31002 -0.31 s-0.11 -0.34334 -0.11 -0.61 l0 -1.26 l7.16 0 c0.16 0 0.29666 0.06 0.41 0.18 s0.17 0.23334 0.17 0.34 l0 2.64 l-1.18 0 c-0.26666 0 -0.48 -0.06666 -0.64 -0.2 s-0.27334 -0.26 -0.34 -0.38 c-0.09334 -0.16 -0.23334 -0.24 -0.42 -0.24 l-1.5 0 l0 0 z M64.86 5.04 l0 1.340058 c0 0.21334 -0.05 0.39 -0.15 0.53 s-0.20334 0.25 -0.31 0.33 c-0.04 0.02666 -0.07666 0.06332 -0.11 0.10998 s-0.05668 0.11666 -0.07002 0.21 l0 11.86 c0 0.24 -0.04334 0.39666 -0.13 0.47 s-0.20332 0.11 -0.34998 0.11 l-1.22 0 c-0.37334 0 -0.63334 -0.16 -0.78 -0.48 c-0.04 -0.08 -0.14666 -0.32334 -0.32 -0.73 s-0.38 -0.89 -0.62 -1.45 s-0.49334 -1.15666 -0.76 -1.79 s-0.51332 -1.22 -0.73998 -1.76 s-0.42 -0.99334 -0.58 -1.36 s-0.24 -0.55666 -0.24 -0.57 s-0.00666 -0.01334 -0.02 0 s-0.02 0.06 -0.02 0.14 l0 5.38 c0 0.12 0.02666 0.20666 0.08 0.26 s0.11334 0.1 0.18 0.14 c0.09334 0.06666 0.19 0.17332 0.29 0.31998 s0.15 0.33332 0.15 0.55998 l0 1.34 l-4.02 0 l0 -1.36 c0 -0.21334 0.05 -0.39 0.15 -0.53 s0.20334 -0.24334 0.31 -0.31 c0.04 -0.04 0.07666 -0.08 0.11 -0.12 s0.05668 -0.10666 0.07002 -0.2 l0 -10.02 c-0.13334 -0.04 -0.25334 -0.10666 -0.36 -0.2 c-0.09334 -0.08 -0.17668 -0.19334 -0.25002 -0.34 s-0.11 -0.33332 -0.11 -0.55998 l0 -1.32 l2.78 0 c0.16 0 0.3 0.08 0.42 0.24 s0.2 0.30666 0.24 0.44 c0.02666 0.09334 0.11332 0.32334 0.25998 0.69 s0.32666 0.80666 0.54 1.32 s0.44334 1.06334 0.69 1.65 s0.47666 1.14 0.69 1.66 s0.39668 0.97334 0.55002 1.36 s0.25 0.63332 0.29 0.73998 c0.01334 0.02666 0.02334 0.02666 0.03 0 s0.01 -0.06 0.01 -0.1 l0 -5.38 c0 -0.12 -0.02666 -0.21 -0.08 -0.27 s-0.11334 -0.11 -0.18 -0.15 c-0.09334 -0.06666 -0.18668 -0.17 -0.28002 -0.31 s-0.14 -0.33 -0.14 -0.57 l0 -1.32 l4 0 z M74.42 17.72 c0.10666 0.06666 0.2067 0.173301 0.30004 0.31996 s0.14 0.33332 0.14 0.55998 l0 1.4 l-4 0 l0 -1.16 c0 -0.24 0.04666 -0.46 0.14 -0.66 s0.19334 -0.33334 0.3 -0.4 c0.06666 -0.05334 0.12332 -0.10668 0.16998 -0.16002 s0.07 -0.14 0.07 -0.26 c-0.01334 -0.10666 -0.02668 -0.20666 -0.04002 -0.3 c-0.01334 -0.08 -0.03 -0.16334 -0.05 -0.25 s-0.03666 -0.16332 -0.05 -0.22998 c-0.02666 -0.10666 -0.07332 -0.17666 -0.13998 -0.21 s-0.15332 -0.05 -0.25998 -0.05 l-1.88 0 c-0.12 0 -0.20334 0.01 -0.25 0.03 s-0.08332 0.09666 -0.10998 0.23 c-0.01334 0.06666 -0.02668 0.14332 -0.04002 0.22998 s-0.03334 0.17 -0.06 0.25 c-0.02666 0.09334 -0.04666 0.19334 -0.06 0.3 c0 0.12 0.01334 0.20666 0.04 0.26 s0.07332 0.10668 0.13998 0.16002 c0.10666 0.06666 0.20666 0.20332 0.3 0.40998 s0.14 0.43 0.14 0.67 l0 1.14 l-3.94 0 l0 -1.4 c0 -0.22666 0.05 -0.41332 0.15 -0.55998 s0.19666 -0.25332 0.29 -0.31998 c0.06666 -0.05334 0.12666 -0.11334 0.18 -0.18 s0.09334 -0.15332 0.12 -0.25998 c0.37334 -1.77334 0.71334 -3.36668 1.02 -4.78002 c0.13334 -0.6 0.26 -1.18666 0.38 -1.76 s0.23 -1.08668 0.33 -1.54002 s0.18 -0.82 0.24 -1.1 s0.09 -0.42666 0.09 -0.44 c0.02666 -0.10666 0.04 -0.20332 0.04 -0.28998 s-0.03334 -0.14332 -0.1 -0.16998 c-0.14666 -0.06666 -0.26666 -0.17666 -0.36 -0.33 s-0.14 -0.38334 -0.14 -0.69 l0 -1.14 l3.1 0 c0.30666 0 0.55 0.09334 0.73 0.28 s0.29 0.39332 0.33 0.61998 c0 0.05334 0.03666 0.25668 0.11 0.61002 s0.17 0.8 0.29 1.34 s0.25334 1.14666 0.4 1.82 s0.29332 1.35668 0.43998 2.05002 c0.34666 1.62666 0.74666 3.46666 1.2 5.52 c0.04 0.17334 0.14 0.32 0.3 0.44 z M70.78004 14.01998 c0.09334 0 0.153379 -0.009961 0.180039 -0.029961 s0.03332 -0.07 0.01998 -0.15 c0 -0.02666 -0.02334 -0.16666 -0.07 -0.42 s-0.1 -0.56 -0.16 -0.92 s-0.12666 -0.75 -0.2 -1.17 s-0.14 -0.81 -0.2 -1.17 s-0.11334 -0.66 -0.16 -0.9 s-0.07 -0.36666 -0.07 -0.38 c0 -0.05334 -0.01666 -0.07668 -0.05 -0.07002 s-0.05668 0.02332 -0.07002 0.04998 c0 0.01334 -0.02 0.14334 -0.06 0.39 s-0.09334 0.55 -0.16 0.91 s-0.13666 0.74666 -0.21 1.16 s-0.14334 0.80334 -0.21 1.17 s-0.12332 0.67666 -0.16998 0.93 s-0.07 0.39334 -0.07 0.42 c-0.01334 0.08 -0.00668 0.13 0.01998 0.15 s0.08666 0.03 0.18 0.03 l1.46 0 z M85.7 5.04 l0 1.340058 c0 0.21334 -0.05 0.39 -0.15 0.53 s-0.20334 0.25 -0.31 0.33 c-0.04 0.02666 -0.07666 0.06332 -0.11 0.10998 s-0.05668 0.11666 -0.07002 0.21 l0 11.86 c0 0.24 -0.04334 0.39666 -0.13 0.47 s-0.20332 0.11 -0.34998 0.11 l-1.22 0 c-0.37334 0 -0.63334 -0.16 -0.78 -0.48 c-0.04 -0.08 -0.14666 -0.32334 -0.32 -0.73 s-0.38 -0.89 -0.62 -1.45 s-0.49334 -1.15666 -0.76 -1.79 s-0.51332 -1.22 -0.73998 -1.76 s-0.42 -0.99334 -0.58 -1.36 s-0.24 -0.55666 -0.24 -0.57 s-0.00666 -0.01334 -0.02 0 s-0.02 0.06 -0.02 0.14 l0 5.38 c0 0.12 0.02666 0.20666 0.08 0.26 s0.11334 0.1 0.18 0.14 c0.09334 0.06666 0.19 0.17332 0.29 0.31998 s0.15 0.33332 0.15 0.55998 l0 1.34 l-4.02 0 l0 -1.36 c0 -0.21334 0.05 -0.39 0.15 -0.53 s0.20334 -0.24334 0.31 -0.31 c0.04 -0.04 0.07666 -0.08 0.11 -0.12 s0.05668 -0.10666 0.07002 -0.2 l0 -10.02 c-0.13334 -0.04 -0.25334 -0.10666 -0.36 -0.2 c-0.09334 -0.08 -0.17668 -0.19334 -0.25002 -0.34 s-0.11 -0.33332 -0.11 -0.55998 l0 -1.32 l2.78 0 c0.16 0 0.3 0.08 0.42 0.24 s0.2 0.30666 0.24 0.44 c0.02666 0.09334 0.11332 0.32334 0.25998 0.69 s0.32666 0.80666 0.54 1.32 s0.44334 1.06334 0.69 1.65 s0.47666 1.14 0.69 1.66 s0.39668 0.97334 0.55002 1.36 s0.25 0.63332 0.29 0.73998 c0.01334 0.02666 0.02334 0.02666 0.03 0 s0.01 -0.06 0.01 -0.1 l0 -5.38 c0 -0.12 -0.02666 -0.21 -0.08 -0.27 s-0.11334 -0.11 -0.18 -0.15 c-0.09334 -0.06666 -0.18668 -0.17 -0.28002 -0.31 s-0.14 -0.33 -0.14 -0.57 l0 -1.32 l4 0 z M95.08 5.06 c0.28 0 0.4767 0.046582 0.59004 0.139922 s0.17 0.31334 0.17 0.66 l0 1.4 l0 1 l-1.16 0 c-0.34666 0 -0.60666 -0.16 -0.78 -0.48 c-0.06666 -0.14666 -0.13 -0.24666 -0.19 -0.3 s-0.20334 -0.08 -0.43 -0.08 l-0.26 0 c-0.17334 0 -0.26 0.11334 -0.26 0.34 l-0.04 9.68 c0 0.13334 0.02666 0.22668 0.08 0.28002 s0.11334 0.10668 0.18 0.16002 c0.09334 0.06666 0.18668 0.17 0.28002 0.31 s0.14 0.33 0.14 0.57 l0 1.28 l-4.08 0 l0 -1.28 c0 -0.22666 0.05 -0.41332 0.15 -0.55998 s0.20334 -0.25332 0.31 -0.31998 c0.06666 -0.05334 0.12 -0.11334 0.16 -0.18 s0.06 -0.15332 0.06 -0.25998 l0 -9.74 c0 -0.09334 -0.04 -0.16334 -0.12 -0.21 s-0.15334 -0.07 -0.22 -0.07 l-0.2 0 c-0.08 0 -0.17666 0.02 -0.29 0.06 s-0.21 0.14666 -0.29 0.32 c-0.09334 0.18666 -0.19668 0.31332 -0.31002 0.37998 s-0.31668 0.1 -0.61002 0.1 l-1.04 0 l0 -1.1 l0 -1.3 c0 -0.30666 0.07334 -0.51666 0.22 -0.63 s0.33332 -0.17 0.55998 -0.17 l7.38 0 l0 0 z"></path></g></svg>